<svg width="48" height="48" viewBox="0 0 48 48" fill="none" xmlns="http://www.w3.org/2000/svg">
<path fill-rule="evenodd" clip-rule="evenodd" d="M32.152 21.452V15.38H34.858V27.986C34.858 29.086 34.902 30.274 34.946 31H32.526L32.416 29.306H32.372C31.732 30.494 30.436 31.242 28.872 31.242C26.322 31.242 24.298 29.064 24.298 25.764C24.276 22.178 26.518 20.044 29.094 20.044C30.568 20.044 31.624 20.66 32.108 21.452H32.152ZM32.064 27.15C32.13 26.908 32.152 26.644 32.152 26.358V24.752C32.152 24.532 32.13 24.268 32.086 24.048C31.844 22.992 30.986 22.134 29.754 22.134C28.014 22.134 27.048 23.674 27.048 25.676C27.048 27.634 28.016 29.064 29.732 29.064C30.832 29.064 31.8 28.316 32.064 27.15Z" fill="#767676"/>
<path d="M19.808 23.41L24.318 31H21.192L19.588 28.052C19.0695 27.1352 18.578 26.2035 18.114 25.258H18.048C17.696 26.116 17.3 26.908 16.706 28.052L15.232 31H12.13L16.53 23.498L12.306 16.172H15.406L17.014 19.23C17.498 20.154 17.85 20.88 18.246 21.716H18.29C18.686 20.792 18.994 20.132 19.456 19.23L21.04 16.172H24.14L19.808 23.41Z" fill="#767676"/>
<path fill-rule="evenodd" clip-rule="evenodd" d="M34.516 5.66601C27.5267 4.8912 20.4733 4.8912 13.484 5.66601C9.46 6.11601 6.21 9.28601 5.738 13.33C4.90878 20.4192 4.90878 27.5808 5.738 34.67C6.21 38.714 9.458 41.884 13.484 42.334C20.4733 43.108 27.5267 43.108 34.516 42.334C38.54 41.884 41.79 38.714 42.262 34.67C43.0912 27.5808 43.0912 20.4192 42.262 13.33C41.79 9.28601 38.542 6.11601 34.516 5.66601ZM13.816 8.64601C20.5846 7.89575 27.4154 7.89575 34.184 8.64601C36.844 8.94601 38.974 11.044 39.284 13.68C40.0859 20.5366 40.0859 27.4634 39.284 34.32C39.1237 35.6101 38.5331 36.8084 37.6077 37.7215C36.6823 38.6346 35.4761 39.209 34.184 39.352C27.4154 40.1023 20.5846 40.1023 13.816 39.352C12.5239 39.209 11.3177 38.6346 10.3923 37.7215C9.46692 36.8084 8.87635 35.6101 8.716 34.32C7.9141 27.4634 7.9141 20.5366 8.716 13.68C8.87635 12.3899 9.46692 11.1916 10.3923 10.2785C11.3177 9.36545 12.5239 8.78902 13.816 8.64601Z" fill="#767676"/>
</svg>
