<svg width="48" height="48" viewBox="0 0 48 48" fill="none" xmlns="http://www.w3.org/2000/svg">
<path d="M44 16C44 14.9 43.1 14 42 14H40V10C40 7.8 38.2 6 36 6H8C5.8 6 4 7.8 4 10V38C4 40.2 5.8 42 8 42H36C38.2 42 40 40.2 40 38V34H42C43.1 34 44 33.1 44 32C44 30.9 43.1 30 42 30H40V26H42C43.1 26 44 25.1 44 24C44 22.9 43.1 22 42 22H40V18H42C43.1 18 44 17.1 44 16ZM34 38H10C8.9 38 8 37.1 8 36V12C8 10.9 8.9 10 10 10H34C35.1 10 36 10.9 36 12V36C36 37.1 35.1 38 34 38ZM13 26H21C21.56 26 22 26.44 22 27V33C22 33.56 21.56 34 21 34H13C12.44 34 12 33.56 12 33V27C12 26.44 12.44 26 13 26ZM25 14H31C31.56 14 32 14.44 32 15V19C32 19.56 31.56 20 31 20H25C24.44 20 24 19.56 24 19V15C24 14.44 24.44 14 25 14ZM13 14H21C21.56 14 22 14.44 22 15V23C22 23.56 21.56 24 21 24H13C12.44 24 12 23.56 12 23V15C12 14.44 12.44 14 13 14ZM25 22H31C31.56 22 32 22.44 32 23V33C32 33.56 31.56 34 31 34H25C24.44 34 24 33.56 24 33V23C24 22.44 24.44 22 25 22Z" fill="#767676"/>
</svg>
