<svg width="48" height="48" viewBox="0 0 48 48" fill="none" xmlns="http://www.w3.org/2000/svg">
<path d="M37.84 24C37.92 24.66 38 25.32 38 26C38 30.16 36.4 33.94 33.8 36.78C33.28 35.16 31.8 34 30 34H28V28C28 26.9 27.1 26 26 26H14V22H18C19.1 22 20 21.1 20 20V16H24C26.2 16 28 14.2 28 12V6.92C26.1 6.32 24.1 6 22 6C10.96 6 2 14.96 2 26C2 37.04 10.96 46 22 46C33.04 46 42 37.04 42 26C42 25.32 41.96 24.66 41.9 24H37.84ZM20 41.86C12.1 40.88 6 34.16 6 26C6 24.76 6.16 23.58 6.42 22.42L16 32V34C16 36.2 17.8 38 20 38V41.86ZM44 8V7C44 5.67392 43.4732 4.40215 42.5355 3.46447C41.5979 2.52678 40.3261 2 39 2C37.6739 2 36.4021 2.52678 35.4645 3.46447C34.5268 4.40215 34 5.67392 34 7V8C32.9 8 32 8.9 32 10V18C32 19.1 32.9 20 34 20H44C45.1 20 46 19.1 46 18V10C46 8.9 45.1 8 44 8ZM42 8H36V7C36 5.34 37.34 4 39 4C40.66 4 42 5.34 42 7V8Z" fill="#767676"/>
</svg>
